<svg xmlns="http://www.w3.org/2000/svg" width="84" height="84" viewBox="0 0 84 84" fill="none">
  <path d="M15.4929 71.4026L9.59448 5.25H74.4057L68.4995 71.3921L41.9607 78.75L15.4929 71.4026Z" fill="#E44F26"/>
  <path d="M42 73.1273L63.4463 67.1816L68.4915 10.6601H42V73.1273Z" fill="#F1662A"/>
  <path d="M42 35.1934H31.2638L30.5235 26.8853H42V18.7714H21.6562L21.8505 20.9501L23.8429 43.3073H42V35.1934ZM42 56.2643L41.9632 56.2748L32.928 53.8361L32.3505 47.3655H24.2051L25.3418 60.102L41.9632 64.7167L42 64.7063V56.2643Z" fill="#EBEBEB"/>
  <path d="M41.9712 35.1934V43.3073H51.9619L51.0222 53.8309L41.9712 56.2721V64.7141L58.6058 60.102L58.7266 58.7318L60.6323 37.3721L60.8318 35.1934H58.6452H41.9712ZM41.9712 18.7714V26.8853H61.5694L61.7322 25.0635L62.1023 20.9501L62.2966 18.7714H41.9712Z" fill="white"/>
</svg>