<svg xmlns="http://www.w3.org/2000/svg" width="43" height="44" viewBox="0 0 49 50" fill="none">
  <g clip-path="url(#clip0_15_136)">
    <path d="M37.2123 0.60376H11.3915C5.10015 0.60376 0 5.70391 0 11.9953V37.816C0 44.1074 5.10015 49.2075 11.3915 49.2075H37.2123C43.5036 49.2075 48.6038 44.1074 48.6038 37.816V11.9953C48.6038 5.70391 43.5036 0.60376 37.2123 0.60376Z" fill="url(#paint0_radial_15_136)"/>
    <path d="M37.2123 0.60376H11.3915C5.10015 0.60376 0 5.70391 0 11.9953V37.816C0 44.1074 5.10015 49.2075 11.3915 49.2075H37.2123C43.5036 49.2075 48.6038 44.1074 48.6038 37.816V11.9953C48.6038 5.70391 43.5036 0.60376 37.2123 0.60376Z" fill="url(#paint1_radial_15_136)"/>
    <path d="M24.3036 5.9198C19.1474 5.9198 18.5002 5.94239 16.4752 6.03447C14.4539 6.12713 13.0742 6.44704 11.8671 6.91656C10.6182 7.40146 9.559 8.0502 8.50376 9.10581C7.44758 10.1612 6.79884 11.2205 6.31242 12.4688C5.84157 13.6763 5.52128 15.0565 5.43033 17.0768C5.33977 19.1021 5.31604 19.7495 5.31604 24.9058C5.31604 30.0622 5.33882 30.7073 5.43071 32.7324C5.52375 34.7536 5.84366 36.1333 6.3128 37.3404C6.79808 38.5893 7.44682 39.6485 8.50244 40.7038C9.55748 41.76 10.6167 42.4102 11.8646 42.8951C13.0727 43.3646 14.4526 43.6846 16.4735 43.7772C18.4987 43.8693 19.1453 43.8919 24.3013 43.8919C29.4581 43.8919 30.1032 43.8693 32.1282 43.7772C34.1495 43.6846 35.5307 43.3646 36.7388 42.8951C37.9871 42.4102 39.0448 41.76 40.0996 40.7038C41.1558 39.6485 41.8044 38.5893 42.291 37.341C42.7577 36.1333 43.0781 34.7532 43.1731 32.7328C43.264 30.7077 43.2877 30.0622 43.2877 24.9058C43.2877 19.7495 43.264 19.1024 43.1731 17.0772C43.0781 15.056 42.7577 13.6765 42.291 12.4693C41.8044 11.2205 41.1558 10.1612 40.0996 9.10581C39.0436 8.04982 37.9875 7.40108 36.7376 6.91675C35.5273 6.44704 34.1468 6.12694 32.1256 6.03447C30.1004 5.94239 29.4556 5.9198 24.2977 5.9198H24.3036ZM22.6004 9.34124C23.106 9.34048 23.67 9.34124 24.3036 9.34124C29.373 9.34124 29.9737 9.35947 31.9756 9.45041C33.8267 9.53509 34.8314 9.84436 35.5007 10.1043C36.3868 10.4483 37.0184 10.8597 37.6825 11.5244C38.3471 12.1889 38.7583 12.8217 39.1033 13.7078C39.3632 14.3761 39.6728 15.3808 39.7571 17.2319C39.8481 19.2334 39.8678 19.8345 39.8678 24.9015C39.8678 29.9684 39.8481 30.5697 39.7571 32.571C39.6725 34.4221 39.3632 35.4268 39.1033 36.0953C38.7592 36.9814 38.3471 37.6123 37.6825 38.2764C37.018 38.9409 36.3871 39.3522 35.5007 39.6964C34.8322 39.9574 33.8267 40.266 31.9756 40.3506C29.9741 40.4416 29.373 40.4613 24.3036 40.4613C19.234 40.4613 18.6331 40.4416 16.6318 40.3506C14.7807 40.2652 13.7759 39.9559 13.1061 39.696C12.2202 39.3518 11.5873 38.9406 10.9228 38.2761C10.2582 37.6116 9.84701 36.9803 9.50204 36.0938C9.24212 35.4253 8.93246 34.4206 8.84817 32.5695C8.75723 30.568 8.739 29.9669 8.739 24.8967C8.739 19.8267 8.75723 19.2287 8.84817 17.2272C8.93284 15.3761 9.24212 14.3714 9.50204 13.7021C9.84625 12.816 10.2582 12.1832 10.9229 11.5187C11.5874 10.8542 12.2202 10.4428 13.1063 10.098C13.7756 9.83696 14.7807 9.52844 16.6318 9.44338C18.3832 9.36421 19.062 9.34048 22.6004 9.33649V9.34124ZM34.4382 12.4937C33.1804 12.4937 32.1599 13.5132 32.1599 14.7712C32.1599 16.029 33.1804 17.0495 34.4382 17.0495C35.6961 17.0495 36.7165 16.029 36.7165 14.7712C36.7165 13.5134 35.6961 12.4929 34.4382 12.4929V12.4937ZM24.3036 15.1557C18.9192 15.1557 14.5536 19.5213 14.5536 24.9058C14.5536 30.2904 18.9192 34.6539 24.3036 34.6539C29.6882 34.6539 34.0523 30.2904 34.0523 24.9058C34.0523 19.5215 29.6878 15.1557 24.3032 15.1557H24.3036ZM24.3036 18.5771C27.7987 18.5771 30.6323 21.4104 30.6323 24.9058C30.6323 28.4009 27.7987 31.2346 24.3036 31.2346C20.8083 31.2346 17.975 28.4009 17.975 24.9058C17.975 21.4104 20.8083 18.5771 24.3036 18.5771Z" fill="white"/>
  </g>
  <defs>
    <radialGradient id="paint0_radial_15_136" cx="0" cy="0" r="1" gradientUnits="userSpaceOnUse" gradientTransform="translate(12.9104 52.951) rotate(-90) scale(48.1699 44.8019)">
      <stop stop-color="#FFDD55"/>
      <stop offset="0.1" stop-color="#FFDD55"/>
      <stop offset="0.5" stop-color="#FF543E"/>
      <stop offset="1" stop-color="#C837AB"/>
    </radialGradient>
    <radialGradient id="paint1_radial_15_136" cx="0" cy="0" r="1" gradientUnits="userSpaceOnUse" gradientTransform="translate(-8.14132 4.10494) rotate(78.681) scale(21.5322 88.7566)">
      <stop stop-color="#3771C8"/>
      <stop offset="0.128" stop-color="#3771C8"/>
      <stop offset="1" stop-color="#6600FF" stop-opacity="0"/>
    </radialGradient>
    <clipPath id="clip0_15_136">
      <rect width="48.6038" height="48.6038" fill="white" transform="translate(0 0.60376)"/>
    </clipPath>
  </defs>
</svg>