<svg xmlns="http://www.w3.org/2000/svg" width="63" height="63" viewBox="0 0 70 70" fill="none">
  <g clip-path="url(#clip0_50_76)">
    <path d="M0.77002 0.770004H69.23V69.2306H0.77002V0.770004Z" fill="#F0DB4F"/>
    <path d="M63.6272 52.9025C63.1257 49.7793 61.0891 47.1559 55.0565 44.7098C52.9609 43.7467 50.6247 43.0571 49.9285 41.469C49.6813 40.5448 49.6485 40.0241 49.8049 39.4647C50.2539 37.6491 52.4212 37.083 54.1389 37.6037C55.2452 37.9744 56.2925 38.827 56.9241 40.1871C59.8783 38.2741 59.8723 38.2867 61.9351 36.972C61.1799 35.8012 60.7769 35.2609 60.2825 34.7599C58.5057 32.7753 56.0847 31.7532 52.2128 31.8314L50.1959 32.0923C48.2633 32.5806 46.4214 33.5951 45.3413 34.9551C42.1005 38.6323 43.0247 45.068 46.9683 47.7165C50.8533 50.6324 56.5604 51.2958 57.2894 54.0225C57.9987 57.3606 54.8362 58.4412 51.6927 58.0573C49.3762 57.5755 48.0877 56.3981 46.6948 54.2571C44.1311 55.7408 44.1311 55.7408 41.4951 57.2567C42.1202 58.6234 42.777 59.2419 43.8248 60.4258C48.7839 65.456 61.1936 65.2088 63.4194 57.5952C63.5096 57.3338 64.109 55.5904 63.6272 52.9025ZM37.9869 32.2344H31.5836L31.5573 48.7894C31.5573 52.3102 31.7394 55.5379 31.1669 56.5272C30.2301 58.473 27.8025 58.2318 26.6962 57.8544C25.5701 57.301 24.9976 56.5141 24.3342 55.4017C24.1521 55.0823 24.0154 54.8351 23.9694 54.816L18.7632 58.0043C19.6289 59.7811 20.9042 61.3233 22.5377 62.3251C24.9779 63.7897 28.2575 64.2387 31.6875 63.4512C33.9198 62.8009 35.8459 61.454 36.8544 59.4037C38.3123 56.7159 37.9995 53.4625 37.9864 49.8641C38.0192 43.9934 37.9869 38.1237 37.9869 32.2344Z" fill="#323330"/>
  </g>
  <defs>
    <clipPath id="clip0_50_76">
      <rect width="70" height="70" fill="white"/>
    </clipPath>
  </defs>
</svg>