<svg width="45" height="25" viewBox="0 0 197 131" fill="none" xmlns="http://www.w3.org/2000/svg">
<path id="Vector" d="M11.5 130.75H185.5C191.481 130.75 196.375 125.856 196.375 119.875C196.375 113.894 191.481 109 185.5 109H11.5C5.51875 109 0.625 113.894 0.625 119.875C0.625 125.856 5.51875 130.75 11.5 130.75ZM11.5 76.375H185.5C191.481 76.375 196.375 71.4813 196.375 65.5C196.375 59.5187 191.481 54.625 185.5 54.625H11.5C5.51875 54.625 0.625 59.5187 0.625 65.5C0.625 71.4813 5.51875 76.375 11.5 76.375ZM0.625 11.125C0.625 17.1063 5.51875 22 11.5 22H185.5C191.481 22 196.375 17.1063 196.375 11.125C196.375 5.14375 191.481 0.25 185.5 0.25H11.5C5.51875 0.25 0.625 5.14375 0.625 11.125Z" fill="black"/>
</svg>
