<svg xmlns="http://www.w3.org/2000/svg" width="84" height="84" viewBox="0 0 84 84" fill="none">
  <path d="M15.4927 71.4026L9.59692 5.25H74.4029L68.4993 71.3921L41.9606 78.75L15.4927 71.4026Z" fill="#1572B6"/>
  <path d="M42 73.1273L63.4463 67.1816L68.4915 10.6601H42V73.1273Z" fill="#33A9DC"/>
  <path d="M42 34.6264H52.7362L53.4765 26.3183H42V18.2044H62.3438L62.1495 20.3805L60.1571 42.7403H42V34.6264Z" fill="white"/>
  <path d="M42.0498 55.6972L42.013 55.7077L32.9778 53.2665L32.4003 46.7959H24.2549L25.3915 59.535L42.0104 64.1497L42.0498 64.1392V55.6972Z" fill="#EBEBEB"/>
  <path d="M52.0459 42.3964L51.0694 53.2613L42.021 55.7025V64.1445L58.653 59.535L58.7764 58.1648L60.186 42.3964H52.0459Z" fill="white"/>
  <path d="M42.029 18.2044V26.3183H22.4307L22.268 24.4939L21.8979 20.3805L21.7036 18.2044H42.029ZM42.0001 34.6264V42.7403H33.0777L32.915 40.9159L32.5475 36.8025L32.3532 34.6264H42.0001Z" fill="#EBEBEB"/>
</svg>