<svg xmlns="http://www.w3.org/2000/svg" width="50" height="50" viewBox="0 0 54 54" fill="none">
  <path d="M26.9623 4.48428C24.0179 4.48428 21.1023 5.06423 18.382 6.19101C15.6617 7.31779 13.19 8.96934 11.108 11.0514C6.90314 15.2562 4.54089 20.9591 4.54089 26.9057C4.54089 36.8159 10.9758 45.2239 19.8771 48.206C20.9982 48.3854 21.3569 47.6903 21.3569 47.0849V43.2957C15.1462 44.641 13.8233 40.2912 13.8233 40.2912C12.792 37.6904 11.3346 36.9953 11.3346 36.9953C9.29423 35.6052 11.4915 35.65 11.4915 35.65C13.7337 35.807 14.922 37.9594 14.922 37.9594C16.8727 41.3675 20.1686 40.3585 21.4466 39.8204C21.6484 38.363 22.2314 37.3765 22.8592 36.8159C17.8816 36.2554 12.6574 34.3271 12.6574 25.7846C12.6574 23.2958 13.5094 21.3003 14.9668 19.7084C14.7426 19.1479 13.9579 16.816 15.1911 13.7892C15.1911 13.7892 17.0744 13.1838 21.3569 16.0761C23.1282 15.5829 25.0565 15.3362 26.9623 15.3362C28.8681 15.3362 30.7963 15.5829 32.5676 16.0761C36.8501 13.1838 38.7335 13.7892 38.7335 13.7892C39.9667 16.816 39.1819 19.1479 38.9577 19.7084C40.4151 21.3003 41.2671 23.2958 41.2671 25.7846C41.2671 34.3496 36.0205 36.233 31.0206 36.7935C31.8277 37.4886 32.5676 38.8563 32.5676 40.9415V47.0849C32.5676 47.6903 32.9264 48.4078 34.0699 48.206C42.9711 45.2015 49.3837 36.8159 49.3837 26.9057C49.3837 23.9612 48.8037 21.0457 47.6769 18.3254C46.5502 15.6051 44.8986 13.1334 42.8166 11.0514C40.7346 8.96934 38.2629 7.31779 35.5426 6.19101C32.8223 5.06423 29.9067 4.48428 26.9623 4.48428Z" fill="black"/>
</svg>