<svg xmlns="http://www.w3.org/2000/svg" width="43" height="44" viewBox="0 0 49 50" fill="none">
  <g clip-path="url(#clip0_15_143)">
    <path d="M1.43347 24.6148C1.43233 28.6984 2.50769 32.6858 4.55246 36.2004L1.23792 48.2085L13.6228 44.9863C17.0482 46.8367 20.8863 47.8063 24.7864 47.8065H24.7967C37.6719 47.8065 48.1527 37.4107 48.1582 24.633C48.1607 18.4413 45.7328 12.6191 41.3216 8.23868C36.9112 3.85869 31.0455 1.44527 24.7957 1.44244C11.919 1.44244 1.43898 11.8376 1.43366 24.6148" fill="url(#paint0_linear_15_143)"/>
    <path d="M0.599389 24.6072C0.59806 28.8378 1.71196 32.9678 3.82964 36.6082L0.39624 49.0468L13.2252 45.7092C16.76 47.6215 20.7398 48.6298 24.7895 48.6313H24.7999C38.1371 48.6313 48.9943 37.8616 49 24.6265C49.0023 18.2123 46.487 12.1807 41.9183 7.64339C37.349 3.10667 31.2735 0.606397 24.7999 0.60376C11.4604 0.60376 0.604705 11.3719 0.599389 24.6072ZM8.23948 35.9813L7.76047 35.2268C5.74683 32.0498 4.684 28.3786 4.68552 24.6088C4.6897 13.6079 13.7125 4.65784 24.8075 4.65784C30.1805 4.6601 35.23 6.73839 39.0279 10.5091C42.8256 14.2803 44.9154 19.2932 44.9141 24.625C44.9091 35.6258 35.8861 44.577 24.7999 44.577H24.7919C21.1821 44.5751 17.6418 43.6132 14.5544 41.7955L13.8196 41.3631L6.20667 43.3436L8.23948 35.9813Z" fill="url(#paint1_linear_15_143)"/>
    <path d="M18.7514 14.5723C18.2984 13.5732 17.8217 13.5531 17.3909 13.5356C17.0381 13.5205 16.6349 13.5216 16.232 13.5216C15.8287 13.5216 15.1735 13.6721 14.6197 14.2722C14.0653 14.8727 12.5032 16.3241 12.5032 19.2759C12.5032 22.2279 14.67 25.0807 14.9721 25.4814C15.2745 25.8813 19.1552 32.1327 25.3013 34.5377C30.4093 36.5363 31.4488 36.1388 32.5574 36.0385C33.6661 35.9387 36.135 34.5876 36.6387 33.1866C37.1428 31.7857 37.1428 30.5849 36.9917 30.334C36.8406 30.084 36.4373 29.9339 35.8326 29.634C35.2277 29.3339 32.2549 27.8823 31.7007 27.6821C31.1463 27.482 30.7433 27.3822 30.34 27.9829C29.9367 28.5828 28.7788 29.9339 28.4258 30.334C28.0733 30.7351 27.7203 30.785 27.1158 30.4849C26.5107 30.1839 24.5634 29.5511 22.253 27.5073C20.4554 25.9169 19.2418 23.953 18.8891 23.3522C18.5363 22.7524 18.8513 22.4272 19.1545 22.1283C19.4262 21.8594 19.7594 21.4277 20.062 21.0774C20.3635 20.727 20.4641 20.4771 20.6658 20.0769C20.8676 19.6764 20.7666 19.326 20.6156 19.0259C20.4641 18.7258 19.2891 15.7585 18.7514 14.5723Z" fill="white"/>
  </g>
  <defs>
    <linearGradient id="paint0_linear_15_143" x1="2347.25" y1="4678.05" x2="2347.25" y2="1.44244" gradientUnits="userSpaceOnUse">
      <stop stop-color="#1FAF38"/>
      <stop offset="1" stop-color="#60D669"/>
    </linearGradient>
    <linearGradient id="paint1_linear_15_143" x1="2430.59" y1="4844.91" x2="2430.59" y2="0.60376" gradientUnits="userSpaceOnUse">
      <stop stop-color="#F9F9F9"/>
      <stop offset="1" stop-color="white"/>
    </linearGradient>
    <clipPath id="clip0_15_143">
      <rect width="48.6038" height="48.6038" fill="white" transform="translate(0.39624 0.60376)"/>
    </clipPath>
  </defs>
</svg>